<svg width="106.5" height="16.5" viewBox="0 0 107 17" fill="none" xmlns="http://www.w3.org/2000/svg">
<path d="M25.3443 9.04771C24.7169 7.86846 23.9171 6.05225 23.345 4.66122L23.0021 4.69972C23.1159 6.38116 23.2123 8.81507 23.2123 10.3425V14.3231H21.175V2.72949H24.2775L26.7904 7.27001C27.6281 8.77657 28.4847 10.7291 28.9983 12.0624L29.3413 12.0432C29.2275 10.4002 29.1311 8.27438 29.1311 6.74857V2.72949H31.1304V14.3231H28.2745L25.3427 9.04771H25.3443Z" fill="#A2A2A2"/>
<path d="M32.8435 9.89845C32.8435 6.82597 34.5567 5.00977 37.3541 5.00977C40.1516 5.00977 41.3701 6.67195 41.3701 9.16362C41.3701 9.51178 41.3701 9.9177 41.3322 10.3814H34.8791C35.0309 12.0243 35.8495 12.8554 37.3731 12.8554C38.8003 12.8554 39.2949 12.1591 39.5431 11.2895L41.2942 11.7917C40.8754 13.4346 39.7517 14.5545 37.3541 14.5545C34.6136 14.5545 32.8435 12.9308 32.8435 9.89684V9.89845ZM34.8997 8.99034H39.4878C39.4119 7.42442 38.726 6.61259 37.2988 6.61259C35.8717 6.61259 35.0909 7.36666 34.8997 8.99034Z" fill="#A2A2A2"/>
<path d="M49.0431 11.9278H48.8535C48.3588 13.6093 47.2161 14.5751 45.7321 14.5751C43.8482 14.5751 42.9536 13.2804 42.9536 11.3101V5.24219H45.0098V10.7694C45.0098 11.8701 45.4855 12.6819 46.704 12.6819C48.0933 12.6819 48.9878 11.7545 48.9878 10.3828V5.24219H51.044V14.3248H49.0463V11.9294L49.0431 11.9278Z" fill="#A2A2A2"/>
<path d="M53.1731 14.3234V5.2408H55.1155V7.96511L55.2862 7.98436C55.7998 5.78149 56.6375 5.14453 57.9319 5.14453H58.2559V7.48218H57.7612C55.8773 7.48218 55.2103 8.15924 55.2103 10.014V14.3234H53.1731Z" fill="#A2A2A2"/>
<path d="M59.1313 9.76367C59.1313 6.76821 60.9015 5.00977 63.6815 5.00977C66.4615 5.00977 68.1921 6.76821 68.1921 9.76367C68.1921 12.7591 66.5168 14.5753 63.6815 14.5753C60.8461 14.5753 59.1313 12.7399 59.1313 9.76367ZM61.1875 9.74442C61.1875 11.6184 61.9493 12.7784 63.6625 12.7784C65.3757 12.7784 66.1565 11.6184 66.1565 9.74442C66.1565 7.87045 65.3188 6.76821 63.6625 6.76821C62.0062 6.76821 61.1875 7.86885 61.1875 9.74442Z" fill="#A2A2A2"/>
<path d="M71.9124 10.132V14.326H69.7424V2.73242H77.6226V4.76202H71.9124V8.22116H77.071V10.1336H71.9124V10.132Z" fill="#A2A2A2"/>
<path d="M81.3731 14.3263H79.3169V1.9209H81.3731V14.3263Z" fill="#A2A2A2"/>
<path d="M83.0483 9.7666C83.0483 6.77114 84.8185 5.0127 87.5985 5.0127C90.3785 5.0127 92.1091 6.77114 92.1091 9.7666C92.1091 12.7621 90.4338 14.5783 87.5985 14.5783C84.7631 14.5783 83.0483 12.7428 83.0483 9.7666ZM85.1045 9.74735C85.1045 11.6213 85.8663 12.7813 87.5795 12.7813C89.2927 12.7813 90.0735 11.6213 90.0735 9.74735C90.0735 7.87338 89.2358 6.77114 87.5795 6.77114C85.9232 6.77114 85.1045 7.87178 85.1045 9.74735Z" fill="#A2A2A2"/>
<path d="M101.856 8.80052C102.18 10.0568 102.464 11.3901 102.712 12.7618H103.055C103.322 11.4093 103.645 10.1723 103.988 8.76201L104.617 5.99438C104.716 5.55477 105.102 5.24512 105.546 5.24512C106.183 5.24512 106.641 5.86924 106.46 6.48855L104.362 13.6347C104.242 14.0454 103.871 14.3262 103.449 14.3262H102.227C101.786 14.3262 101.402 14.0197 101.299 13.5833L100.541 10.3648C100.274 9.18558 100.027 7.98708 99.8359 6.77092H99.5309C99.3207 7.96943 99.0742 9.20644 98.826 10.3648L98.1006 13.5753C98.001 14.0149 97.6154 14.3262 97.1713 14.3262H96.0144C95.5924 14.3262 95.221 14.0454 95.1009 13.6347L93.0036 6.48855C92.8219 5.86763 93.2786 5.24512 93.9171 5.24512H94.0135C94.4481 5.24512 94.8275 5.54354 94.9365 5.97032L95.6461 8.76201C96.0081 10.1531 96.3321 11.4093 96.5976 12.7618H96.9405C97.1887 11.4093 97.4731 10.076 97.7971 8.80052L98.4752 5.98315C98.5795 5.54996 98.9619 5.24512 99.4013 5.24512H100.231C100.669 5.24512 101.05 5.54675 101.156 5.97834L101.851 8.80052H101.856Z" fill="#A2A2A2"/>
<path d="M10.0911 6.54984H8.0729L9.50005 7.99864L8.69086 8.8201L7.2637 7.37131V9.42016H6.12103V7.37131L4.69387 8.8201L3.88626 7.99864L5.31341 6.54984H3.29517V5.38985H5.31183L3.88626 3.94105L4.69387 3.11959L6.12103 4.56838V2.51953H7.2637V4.56838L8.69086 3.11959L9.50005 3.94105L8.0729 5.38985H10.0911V6.54984Z" fill="#A2A2A2"/>
<path d="M10.6382 16.4984L4.13931 16.4711L4.08241 12.2082C3.23212 11.8552 1.67537 10.9455 0.744477 9.30416C-0.0457528 7.90831 -0.20854 6.31993 0.264017 4.58394L0.278242 4.54063C1.18859 1.9928 2.79275 0.89377 3.97968 0.422069C5.16344 -0.0512361 6.17178 -0.0063122 6.36617 0.00812761H10.7346L14.5909 8.82444H12.786C12.8034 9.33143 12.8192 10.0807 12.786 10.7578C12.7465 12.0477 11.7303 12.4777 11.1976 12.5258H11.1534L10.635 12.5339V16.5L10.6382 16.4984ZM5.24563 15.3352L9.51445 15.3528V11.4027L11.1139 11.3867C11.2814 11.3626 11.6497 11.2471 11.6639 10.7161V10.7048C11.716 9.62665 11.6386 8.30139 11.637 8.28856L11.6007 7.68369H12.8619L10.006 1.14727H6.31718L6.29031 1.14406C6.14965 1.13122 2.79591 0.876121 1.34031 4.90643C0.95942 6.32956 1.08586 7.61791 1.71804 8.73298C2.65051 10.3775 4.3985 11.1476 4.78097 11.2503L5.19347 11.361L5.24563 15.3352Z" fill="#A2A2A2"/>
</svg>
