<svg width="12" height="12" viewBox="0 0 12 12" fill="none" xmlns="http://www.w3.org/2000/svg">
<path d="M1.37973 1.16309H5.18412C5.47381 1.16309 5.47529 2.04102 5.18412 2.04102H1.67237C1.24818 2.04102 1.05013 2.79185 1.01466 3.13919C0.852075 4.68962 0.865378 8.01662 1.00874 9.58331C1.09447 10.5233 1.27479 10.8588 2.25766 10.9682C3.80071 11.1397 7.12475 11.1071 8.70179 10.9741C9.07573 10.9431 9.94036 10.7938 9.94036 10.3105V6.79874C9.94036 6.50905 10.8183 6.50757 10.8183 6.79874V10.6031C10.8183 10.6963 10.3705 11.3702 10.2301 11.4781C9.96844 11.6777 9.4674 11.8107 9.13633 11.8476C7.54007 12.0265 3.41199 12.0294 1.81869 11.8476C0.87129 11.7397 0.244613 11.1131 0.13524 10.1642C-0.0465551 8.57235 -0.043599 4.44279 0.13524 2.84654C0.234267 1.95678 0.572731 1.51929 1.37973 1.16456V1.16309Z" fill="#C8C8C8"/>
<path d="M7.69221 1.75828C7.90061 1.72133 10.0201 3.88809 10.2226 4.28863C10.1841 4.50295 7.35079 7.26535 7.14978 7.37176C6.80097 7.55356 4.48493 8.0147 4.2248 7.83143C3.91294 7.6112 4.41694 5.20204 4.61056 4.83254C4.7155 4.63153 7.47937 1.79671 7.69369 1.75976L7.69221 1.75828Z" fill="#C8C8C8"/>
<path d="M9.60918 0.0171557C10.5152 -0.169074 12.039 1.20252 11.9991 2.1115C11.971 2.75 11.4404 3.08107 11.0384 3.5023L8.47998 0.94239C8.80514 0.658612 9.16282 0.107314 9.60918 0.0156777V0.0171557Z" fill="#C8C8C8"/>
</svg>
