<svg width="175" height="27" viewBox="0 0 175 27" fill="none" xmlns="http://www.w3.org/2000/svg">
<path d="M41.5861 14.3935C40.5566 12.5174 39.2444 9.62801 38.3056 7.415L37.7429 7.47626C37.9296 10.1513 38.0878 14.0234 38.0878 16.4534V22.7861H34.745V4.3418H39.8357L43.959 11.5654C45.3334 13.9621 46.739 17.0685 47.5818 19.1896L48.1446 19.159C47.9578 16.5453 47.7996 13.1632 47.7996 10.7358V4.3418H51.0802V22.7861H46.3941L41.5835 14.3935H41.5861Z" fill="#F6F6F9"/>
<path d="M53.8912 15.7462C53.8912 10.8582 56.7024 7.96875 61.2925 7.96875C65.8826 7.96875 67.882 10.6131 67.882 14.5772C67.882 15.131 67.882 15.7768 67.8198 16.5145H57.2314C57.4803 19.1282 58.8237 20.4504 61.3236 20.4504C63.6653 20.4504 64.477 19.3427 64.8842 17.9592L67.7576 18.7581C67.0703 21.3719 65.2265 23.1535 61.2925 23.1535C56.7957 23.1535 53.8912 20.5704 53.8912 15.7436V15.7462ZM57.2651 14.3015H64.7934C64.6689 11.8103 63.5435 10.5187 61.2017 10.5187C58.86 10.5187 57.5789 11.7184 57.2651 14.3015Z" fill="#F6F6F9"/>
<path d="M80.4724 18.9751H80.1612C79.3495 21.6501 77.4746 23.1867 75.0395 23.1867C71.9483 23.1867 70.4805 21.1269 70.4805 17.9924V8.33887H73.8543V17.1322C73.8543 18.8832 74.6349 20.1748 76.6343 20.1748C78.9138 20.1748 80.3816 18.6994 80.3816 16.5171V8.33887H83.7555V22.7885H80.4776V18.9777L80.4724 18.9751Z" fill="#F6F6F9"/>
<path d="M87.2487 22.7864V8.33674H90.4359V12.6709L90.7159 12.7015C91.5588 9.19693 92.9332 8.18359 95.0571 8.18359H95.5887V11.9026H94.777C91.6858 11.9026 90.5915 12.9797 90.5915 15.9304V22.7864H87.2487Z" fill="#F6F6F9"/>
<path d="M97.0254 15.5318C97.0254 10.7663 99.9299 7.96875 104.491 7.96875C109.053 7.96875 111.893 10.7663 111.893 15.5318C111.893 20.2973 109.144 23.1867 104.491 23.1867C99.8391 23.1867 97.0254 20.2667 97.0254 15.5318ZM100.399 15.5012C100.399 18.4825 101.649 20.3279 104.46 20.3279C107.272 20.3279 108.553 18.4825 108.553 15.5012C108.553 12.5198 107.178 10.7663 104.46 10.7663C101.743 10.7663 100.399 12.5173 100.399 15.5012Z" fill="#F6F6F9"/>
<path d="M117.997 16.1198V22.792H114.437V4.34766H127.367V7.57656H117.997V13.0797H126.462V16.1223H117.997V16.1198Z" fill="#F6F6F9"/>
<path d="M133.521 22.7915H130.147V3.05566H133.521V22.7915Z" fill="#F6F6F9"/>
<path d="M136.27 15.5376C136.27 10.7721 139.174 7.97461 143.736 7.97461C148.297 7.97461 151.137 10.7721 151.137 15.5376C151.137 20.3031 148.388 23.1926 143.736 23.1926C139.083 23.1926 136.27 20.2725 136.27 15.5376ZM139.644 15.507C139.644 18.4883 140.894 20.3338 143.705 20.3338C146.516 20.3338 147.797 18.4883 147.797 15.507C147.797 12.5257 146.422 10.7721 143.705 10.7721C140.987 10.7721 139.644 12.5232 139.644 15.507Z" fill="#F6F6F9"/>
<path d="M167.13 14.0011C167.662 15.9997 168.128 18.1208 168.536 20.3032H169.098C169.537 18.1514 170.066 16.1834 170.628 13.9398L171.66 9.53674C171.824 8.83736 172.457 8.34473 173.185 8.34473C174.23 8.34473 174.982 9.33765 174.684 10.3229L171.243 21.6917C171.046 22.3452 170.436 22.7918 169.744 22.7918H167.739C167.016 22.7918 166.386 22.3043 166.217 21.61L164.972 16.4897C164.534 14.6136 164.13 12.7069 163.816 10.7721H163.315C162.97 12.6789 162.566 14.6468 162.159 16.4897L160.968 21.5973C160.805 22.2967 160.172 22.7918 159.443 22.7918H157.545C156.853 22.7918 156.243 22.3452 156.046 21.6917L152.605 10.3229C152.307 9.33509 153.056 8.34473 154.104 8.34473H154.262C154.975 8.34473 155.598 8.81949 155.777 9.49845L156.941 13.9398C157.535 16.1528 158.066 18.1514 158.502 20.3032H159.065C159.472 18.1514 159.939 16.0303 160.47 14.0011L161.583 9.51887C161.754 8.8297 162.382 8.34473 163.103 8.34473H164.464C165.182 8.34473 165.807 8.8246 165.981 9.51122L167.122 14.0011H167.13Z" fill="#F6F6F9"/>
<path d="M16.5582 10.4197H13.2466L15.5883 12.7246L14.2605 14.0315L11.9188 11.7265V14.9861H10.0438V11.7265L7.70211 14.0315L6.37693 12.7246L8.71867 10.4197H5.40704V8.57422H8.71608L6.37693 6.26932L7.70211 4.96244L10.0438 7.26735V4.00781H11.9188V7.26735L14.2605 4.96244L15.5883 6.26932L13.2466 8.57422H16.5582V10.4197Z" fill="#F6F6F9"/>
<path d="M17.4556 26.2474L6.79196 26.2041L6.6986 19.4221C5.30341 18.8605 2.74902 17.4133 1.22157 14.8021C-0.0750732 12.5814 -0.342182 10.0544 0.433212 7.29264L0.456551 7.22372C1.95029 3.17036 4.58248 1.42191 6.53004 0.671473C8.47241 -0.0815119 10.1269 -0.0100421 10.4459 0.0129303H17.6138L23.9414 14.0389H20.9798C21.0084 14.8455 21.0343 16.0375 20.9798 17.1146C20.915 19.1668 19.2475 19.8509 18.3736 19.9275H18.301L17.4504 19.9402V26.25L17.4556 26.2474ZM8.60726 24.3969L15.6117 24.425V18.1407L18.2361 18.1152C18.511 18.0769 19.1153 17.8931 19.1386 17.0483V17.0304C19.2242 15.3151 19.0971 13.2068 19.0945 13.1863L19.0349 12.2241H21.1043L16.4183 1.8252H10.3655L10.3214 1.8201C10.0906 1.79968 4.58766 1.39383 2.19924 7.80569C1.57426 10.0698 1.78172 12.1194 2.81904 13.8934C4.34908 16.5097 7.21726 17.7349 7.84483 17.8982L8.52168 18.0744L8.60726 24.3969Z" fill="#F6F6F9"/>
</svg>
