<svg width="398" height="254" viewBox="0 0 398 254" fill="none" xmlns="http://www.w3.org/2000/svg">
<path d="M153.126 69.5938C151.166 69.5938 167.307 100.956 194.764 147.25C204.019 162.855 208.01 159.732 210.26 156.999C212.51 154.267 213.98 151.327 214.002 147.852C214.051 140.316 205.649 131.027 191.846 118.449C173.094 101.361 145.359 88.943 113.522 83.7308C79.6183 78.1804 52.2368 93.3088 33.2366 104.892C22.604 111.373 11.7862 121.865 6.71501 128.874C1.64383 135.883 3.11396 139.803 6.07648 143.783C12.529 152.451 25.834 159.642 41.8792 165.827C49.8209 168.889 58.4143 168.582 89.6581 157.564C120.902 146.545 174.806 124.003 194.98 113.616C215.153 103.228 199.962 105.679 164.449 117.477C128.936 129.275 73.561 150.347 44.2996 161.937C15.0383 173.527 13.5682 174.997 14.0359 176.735C15.2605 181.283 23.3987 183.922 32.2788 186.149C37.1453 187.37 43.1191 186.907 80.4513 170.735C117.784 154.564 186.389 122.221 226.387 102.62C266.385 83.0179 275.695 77.1374 265.791 91.5046C255.886 105.872 226.483 140.665 208.642 168.144C190.8 195.623 185.409 214.735 183.612 209.879C181.816 205.023 183.776 175.621 180.865 148.223C177.955 120.825 170.114 96.3233 162.645 77.3305C155.175 58.3377 148.315 45.5966 153.356 57.6546C158.398 69.7126 175.549 106.956 188.795 131.777C208.712 169.099 222.89 181.932 225.875 185.889C227.993 188.698 203.778 172.71 164.085 138.415C141.387 118.804 110.18 98.7289 86.1982 86.1586C47.5106 65.8806 24.4678 66.6239 19.508 67.3589C17.1442 67.7093 32.2491 75.9792 73.316 85.3642C104.108 92.4012 157.016 93.7691 203.385 93.5835C249.753 93.3979 288.466 88.9875 311.35 85.0004C334.233 81.0132 340.114 77.583 330.892 78.5111C321.67 79.4392 297.168 84.8296 260.044 97.4073C222.92 109.985 173.916 129.587 140.095 145.075C87.9597 168.951 67.5321 185.882 63.0623 191.569C60.5756 194.734 83.6737 176.705 112.081 143.583C124.62 128.963 136.078 121.241 150.698 112.784C182.555 94.3561 205.07 87.4136 211.73 90.5988C216.148 92.7117 219.86 100.155 225.808 118.628C231.755 137.101 239.106 167.483 240.442 181.42C241.779 195.356 236.878 191.926 223.818 176.928C210.758 161.929 189.686 135.467 165.6 111.299C141.513 87.1313 115.051 66.0595 97.9888 54.2243C80.9265 42.3891 74.0659 40.4289 96.9939 54.8554C119.922 69.282 172.846 100.155 203.786 118.999C234.725 137.843 242.076 143.724 241.207 151.163C238.982 170.218 208.694 179.942 178.853 186.12C161.894 189.63 140.682 190.827 151.143 171.255C161.605 151.683 204.239 110.52 224.731 89.8043C245.224 69.0889 242.284 70.069 219.942 84.54C197.601 99.0111 155.947 126.943 133.264 143.783C110.581 160.623 108.131 165.523 108.829 164.127C122.544 136.697 124.911 99.4269 132.507 91.6309C158.762 64.6834 178.296 151.713 191.884 160.118C197.968 163.881 203.021 165.582 205.79 165.122C210.437 164.35 210.045 148.891 205.397 128.161C202.755 116.377 189.478 105.471 173.388 96.2268C157.299 86.9828 136.227 80.6123 119.981 80.0257C103.736 79.4392 92.9548 84.8296 86.9109 89.5667C80.8671 94.3038 79.887 98.2241 82.3224 103.919C88.4053 118.144 118.749 129.438 161.961 136.128C182.948 139.377 202.724 136.447 220.172 133.485C252.691 127.963 269.919 118.138 271.671 110.98C273.796 102.302 255.173 96.353 237.413 92.3881C216.253 87.6643 189.894 102.664 168.614 122.407C159.17 131.169 160.076 144.11 162.756 152.611C167.741 168.424 183.271 173.527 191.676 175.755C197.009 177.168 208.961 161.321 226.751 130.463C243.872 100.766 243.249 67.2772 236.826 43.0276C234.503 34.2544 231.384 33.4792 223.506 36.1596C201.763 43.5577 181.415 60.5949 170.767 79.3501C160.477 97.4772 179.261 122.934 197.051 142.469C204.557 150.711 210.921 153.673 216.156 155.685C221.39 157.697 225.8 158.187 229.543 155.744C233.285 153.302 236.225 147.911 235.289 140.479C234.354 133.047 229.453 123.736 216.638 110.609C203.823 97.4816 183.241 80.8202 163.818 71.747C129.023 55.4934 99.2659 64.6043 83.4435 74.2196C76.0509 78.712 73.5016 87.2651 75.4098 97.4223C79.9701 121.697 101.063 140.798 122.513 155.611C149.163 174.014 176.796 178.487 192.366 178.004C199.182 177.793 203.526 174.581 207.268 170.624C211.01 166.666 213.95 161.276 214.24 153.109C214.916 134.05 194.364 110.312 163.996 89.537C137.726 71.5653 109.661 77.0038 91.3881 82.9067C81.8741 85.9801 74.0956 94.6899 69.8041 100.682C65.5125 106.674 65.5125 111.084 68.9428 117.031C77.344 131.597 96.593 144.763 117.086 156.873C135.857 167.966 155.027 169.577 170.092 169.584C183.826 169.591 197.601 157.786 209.228 141.734C214.406 134.585 214.485 127.151 211.56 120.187C205 104.57 178.534 93.4127 145.946 86.2181C114.058 79.1778 90.3264 95.2987 79.6939 105.642C73.873 111.304 73.4719 122.845 74.9124 131.332C77.6155 147.257 98.0631 158.633 121.518 168.278C143.302 177.235 165.407 172.577 183.679 165.189C203.346 157.237 213.475 130.626 216.72 103.696C218.185 91.5368 210.654 82.1567 202.241 73.93C193.829 65.7032 182.558 58.8426 165.236 55.7984C125.439 48.8045 95.7614 58.1744 86.3689 66.5571C81.6184 70.7968 79.9167 77.88 80.1246 87.7773C80.6148 111.114 97.083 134.829 117.093 152.381C132.127 165.568 150.067 170.052 165.392 174.01C175.669 176.664 191.126 169.651 213.349 152.396C238.733 132.686 245.684 109.733 244.957 100.11C244.553 94.7726 240.799 89.0172 233.403 85.7429C226.008 82.4685 214.247 81.9785 205.248 83.6862C196.249 85.3939 190.369 89.3142 186.605 93.539C179.887 101.078 184.266 119.459 192.908 140.479C198.334 153.675 210 158.172 223.306 163.11C242.77 170.333 261.469 169.592 273.32 164.432C280.001 161.522 285.17 152.901 288.199 143.724C291.228 134.546 291.228 123.766 287.063 112.576C278.096 88.4888 259.123 75.0733 241.133 70.366C230.295 67.5301 214.812 70.069 202.33 85.5201C189.849 100.971 180.538 130.864 182.113 152.143C183.687 173.423 196.428 185.184 209.362 195.408C222.296 205.632 235.037 213.963 242.336 209.434C249.634 204.904 251.104 187.263 245.246 168.374C232.519 127.338 206.644 103.318 202.635 96.8505C201.648 95.2582 214.307 103.125 232.342 112.042C250.377 120.959 276.349 132.23 293.404 138.526C310.459 144.823 317.809 145.803 320.616 146.553C327.933 148.508 296.782 115.242 276.713 106.971C261.796 100.823 245.744 116.563 238.801 126.446C236.07 130.335 239.7 134.368 244.882 137.361C257.106 144.418 281.665 145.327 314.735 141.652C352.166 137.492 376.792 118.642 388.167 108.04C393.773 102.815 394.642 94.0068 393.446 89.4776C392.251 84.9484 387.841 83.9683 379.198 87.8738C356.522 98.121 337.827 119.979 326.697 146.107C312.058 180.472 316.993 207.176 311.32 211.379C308.373 213.562 304.177 214.111 297.257 207.511C290.337 200.91 280.536 186.699 264.462 152.916C248.387 119.132 226.335 66.2081 214.975 37.4738C203.615 8.73962 203.615 5.79936 204.84 4.77472C217.294 -5.64162 234.265 44.2453 241.675 83.8496C247.104 112.866 248.105 161.187 250.354 188.622C252.604 216.057 254.074 221.447 237.435 200.947C220.796 180.447 186.003 133.893 163.914 107.706C141.825 81.5182 133.495 77.1078 130.428 74.8358C127.362 72.5638 129.812 72.5638 163.172 83.8348C196.532 95.1057 260.727 117.648 264.15 99.8575C267.573 82.0675 208.278 23.2626 181.162 11.1007C152.437 -1.78314 166.505 82.8547 166.728 99.6719C166.818 106.414 173.321 108.649 174.621 109.911C175.846 111.101 154.284 90.5913 125.364 57.9368C113.957 45.0565 105.755 42.9237 98.7833 45.0843C91.8113 47.2449 85.4408 54.5955 83.8742 63.7727C80.5011 83.5318 96.1326 102.679 109.468 116.764C120.684 128.611 135.232 133.923 153.23 133.217C164.197 132.788 177.598 123.201 193.242 108.634C208.887 94.0662 226.038 72.5044 234.874 55.2713C243.709 38.0382 243.709 25.7871 239.544 17.7608C231.735 2.71344 199.353 4.24012 163.781 10.3879C146.918 13.3022 134.089 22.9062 125.557 31.3558C117.026 39.8053 113.596 48.626 112.564 58.5605C110.423 79.1696 122.847 106.555 141.84 137.427C160.738 168.146 187.191 184.367 205.456 195C214.411 200.212 224.702 201.222 233.181 195.861C241.66 190.5 248.52 177.759 250.83 167.275C254.771 149.379 233.463 120.781 209.473 90.0939C200.795 78.9931 196.754 79.0086 188.617 80.7163C180.479 82.424 167.738 86.3443 160.194 94.9794C152.651 103.615 150.691 116.846 152.131 128.072C154.807 148.927 166.461 161.128 175.571 169.763C188.989 182.48 204.565 185.912 216.141 185.184C235.48 183.968 259.91 164.276 279.467 140.056C287.168 130.519 284.813 122.696 278.428 111.812C272.042 100.927 260.281 86.2255 245.402 74.7318C230.523 63.2381 212.881 55.3974 194.727 51.8484C176.574 48.2993 158.442 49.2794 145.916 52.4795C133.391 55.6797 127.02 61.0701 124.963 69.9725C120.201 90.5866 135.722 114.529 153.482 135.764C172.517 158.523 198.061 167.587 219.051 166.629C240.44 165.653 256.495 141.466 269.362 119.021C276.043 107.367 274.389 91.1853 269.496 79.6842C264.603 68.1831 254.312 60.8325 243.62 56.0657C232.928 51.2989 222.147 49.3387 203.117 52.0043C184.087 54.6698 157.135 62.0204 136.635 69.9725C116.135 77.9245 102.904 86.2552 94.3729 95.4472C85.8418 104.639 82.4115 114.44 85.7898 124.879C93.5616 148.895 121.823 166.028 146.013 180.373C157.712 187.31 171.183 187.857 181.422 187.397C199.319 186.592 220.796 166.265 243.308 138.355C253.103 126.213 253.569 113.876 248.454 102.679C243.338 91.4823 231.087 80.7014 217.18 73.9225C203.273 67.1436 188.082 64.6934 168.005 66.8614C147.928 69.0295 123.426 75.8901 108.844 82.1195C94.2615 88.349 90.3412 93.7394 92.732 105.092C95.1229 116.445 103.944 133.596 115.348 148.557C137.802 178.013 163.922 191.822 186.115 194.814C215.306 198.75 242.61 173.171 258.945 150.933C265.71 141.724 264.499 133.596 259.598 121.479C254.698 109.361 244.897 92.6999 232.253 80.1965C219.608 67.693 204.417 59.8524 186.3 57.5284C168.183 55.2044 147.602 58.6347 129.158 64.3221C110.715 70.0096 95.0338 77.8502 85.4854 85.3196C75.937 92.7891 72.9967 99.6496 73.4422 110.044C73.8877 120.439 77.808 134.16 88.1583 147.599C111.111 177.402 141.157 191.807 160.157 200.212C170.003 204.567 181.608 205.677 197.215 200.561C212.822 195.445 232.423 183.194 244.971 171.003C257.519 158.811 262.42 147.05 261.514 134.131C259.573 106.449 232.468 82.5725 206.035 65.7477C194.534 58.4267 184.013 58.7239 169.654 68.2648C155.294 77.8057 136.672 97.8974 126.834 116.088C116.997 134.279 116.506 149.96 119.929 164.164C126.621 191.934 142.687 207.162 152.799 214.327C158.152 218.12 165.362 220.021 176.247 218.588C187.132 217.156 201.833 211.765 219.207 199.922C236.581 188.08 256.183 169.948 270.446 152.767C284.709 135.586 293.04 119.905 292.431 104.721C291.822 89.537 282.022 75.3258 269.867 66.0447C246.432 48.1499 215.138 51.7445 188.958 61.5899C175.625 66.6039 165.718 79.2758 161.88 90.9551C154.407 113.692 172.846 136.818 191.097 156.071C212.249 178.385 242.076 189.357 269.986 188.659C283.56 188.319 294.466 176.69 301.742 167.491C309.018 158.291 311.958 148.98 298.037 130.708C284.115 112.435 253.243 85.4831 226.803 79.9293C200.363 74.3755 179.291 91.0368 170.641 108.441C161.991 125.845 166.402 143.486 172.349 160.415C184.022 193.641 200.571 215.062 215.383 224.707C222.387 229.267 230.196 229.941 241.088 224.573C251.98 219.205 266.192 206.954 277.188 192.802C288.184 178.65 295.535 162.969 297.116 145.09C298.698 127.211 294.287 107.609 286.38 91.6309C278.472 75.6526 267.201 63.8915 251.349 54.6476C235.497 45.4036 215.406 39.033 198.93 36.4863C182.454 33.9396 170.203 35.4097 158.501 41.3125C146.8 47.2152 136.019 57.5061 132.915 72.1183C129.812 86.7304 134.712 105.352 143.852 123.766C152.992 142.179 166.223 159.821 181.86 175.034C197.497 190.248 215.138 202.499 229.372 209.545C243.605 216.591 253.896 218.061 263.118 216.123C272.339 214.186 280.18 208.795 286.179 196.217C292.179 183.64 296.099 164.038 295.423 145.119C294.748 126.201 289.357 108.559 278.005 93.3459C266.652 78.1324 249.501 65.8814 234.049 60.0603C218.598 54.2392 205.367 55.2193 190.465 65.2799C175.564 75.3406 159.392 94.4522 152.777 109.443C142.489 132.755 162.437 159.539 181.444 184.501C190.215 196.02 200.942 202.113 210.401 206.137C219.86 210.161 228.681 211.141 239.106 208.216C262.452 201.665 280.759 179.601 293.122 151.735C299.961 136.318 300.584 115.539 296.7 97.348C292.817 79.1571 282.526 63.4757 272.08 52.9472C261.633 42.4188 251.342 37.5184 240.65 35.729C219.47 32.1842 187.488 43.785 151.893 58.8352C136.142 65.4953 128.06 76.3356 123.271 85.7874C118.481 95.2393 117.991 104.55 121.904 115.227C130.7 139.227 152.042 159.093 172.275 176.386C182.558 185.175 195.448 190.738 209.354 192.795C223.261 194.851 238.452 192.401 250.444 186.728C262.435 181.056 270.765 172.235 276.772 163.036C282.779 153.836 286.209 144.525 282.341 129.438C278.472 114.351 267.201 93.7692 254.045 80.2263C240.888 66.6833 226.186 60.8028 207.097 57.0384C188.008 53.274 164.976 51.8039 145.76 53.9868C126.545 56.1697 111.844 62.0502 100.595 71.9401C89.3463 81.83 81.9957 95.5512 90.46 121.731C98.9244 147.911 123.426 186.134 140.704 206.56C157.982 226.986 167.293 228.456 177.234 223.333C200.659 211.262 215.91 181.59 228.525 155.425C234.713 142.591 234.77 128.28 228.421 113.616C222.073 98.9517 207.862 83.7604 191.475 73.7294C175.089 63.6984 156.957 59.2881 142.471 58.9762C127.985 58.6644 117.694 62.5847 109.698 69.0147C101.701 75.4446 96.3108 84.2653 95.249 95.9149C92.892 121.777 112.913 148.669 140.043 173.601C154.715 187.084 174.034 199.024 187.793 206.813C208.98 218.807 237.086 219.086 268.976 214.913C282.629 213.127 289.595 204.37 278.68 180.989C267.766 157.608 238.363 117.915 209.985 99.4269C181.608 80.939 155.145 84.8593 137.348 89.084C119.551 93.3088 111.22 97.7192 104.968 105.872C98.7165 114.024 94.7961 125.785 101.107 143.85C107.418 161.915 124.08 185.927 138.788 203.197C153.497 220.467 165.748 230.268 176.47 235.807C187.191 241.346 196.012 242.326 207.416 239.155C218.821 235.985 232.542 228.634 244.511 215.292C256.48 201.949 266.281 182.838 270.35 166.622C274.418 150.406 272.458 137.665 268.263 128.161C264.068 118.657 257.698 112.777 251.966 109.747C246.234 106.718 241.333 106.718 230.723 111.618C220.113 116.519 203.942 126.32 194.876 139.699C185.81 153.079 184.34 169.74 188.728 184.694C197.554 214.77 224.791 232.866 245.536 244.004C254.927 249.046 264.321 247.79 272.785 242.4C292.155 230.064 298.148 199.44 298.653 170.045C298.889 156.325 296.218 145.06 280.017 137.784C263.816 130.507 233.433 127.567 221.947 134.628C210.461 141.689 218.791 158.841 231.169 170.372C255.451 192.993 289.12 191.866 313.815 186.461C326.267 183.736 336.55 174.195 338.673 159.375C340.797 144.555 333.936 122.993 320.111 112.621C306.286 102.248 285.704 103.718 271.426 108.641C257.148 113.564 249.798 121.895 247.726 133.537C243.105 159.507 258.99 182.377 272.562 195.23C279.143 201.462 287.605 204.162 295.319 206.174C303.034 208.186 310.384 208.676 320.297 201.578C345.572 183.479 355.572 153.851 355.335 132.126C355.215 121.158 352.647 110.401 348.207 102.152C343.767 93.9028 336.906 88.5123 328.471 86.2255C310.826 81.4414 278.576 93.2791 241.987 107.602C226.56 113.64 219.118 120.944 215.814 126.676C212.51 132.408 213.98 137.309 220.618 143.753C237.33 159.98 265.835 169.547 291.295 174.5C301.961 176.574 308.424 175.532 313.421 172.339C318.418 169.146 321.848 163.266 319.205 143.085C316.562 122.904 307.741 88.6014 294.866 72.6454C281.992 56.6894 265.33 60.1197 256.012 67.7673C246.694 75.4149 245.224 87.1759 247.162 97.6449C255.489 142.634 296.634 159.672 304.534 160.912C308.474 161.531 312.434 160.682 316.658 154.794C327.857 139.187 331.308 115.732 331.085 95.2393C330.973 84.8987 324.492 75.2368 319.762 69.2078C312.269 59.6566 295.297 59.199 273.572 61.8942C262.386 63.2819 251.847 69.9799 244.088 77.9022C236.329 85.8245 231.919 96.1154 232.097 104.602C232.794 137.827 278.754 146.783 296.054 149.032C303.522 150.004 308.454 143.932 312.449 137.249C321.163 122.672 321.923 106.778 315.79 91.4972C305.521 65.9135 275.027 50.3486 250.08 42.4188C238.744 38.8157 228.562 42.3297 220.818 45.7897C213.074 49.2497 207.684 54.1501 205.152 65.4953C198.823 93.8561 213.906 123.439 231.458 141.244C241.973 151.91 252.56 156.197 264.655 156.962C270.971 157.362 277.24 151.356 282.237 143.694C293.313 126.709 292.238 97.4816 286.573 69.2968C284.188 57.4298 277.477 51.8929 272.25 48.3735C263.058 42.1842 242.373 46.7846 215.933 56.6448C203.606 61.2418 195.863 70.4254 191.572 79.1199C187.28 87.8144 187.28 97.1252 200.266 109.517C213.252 121.909 239.225 137.101 255.054 134.636C270.884 132.171 275.785 111.589 274.144 93.3905C272.503 75.1921 264.172 60.0008 253.755 49.7248C243.338 39.4488 231.087 34.5484 216.69 33.004C202.293 31.4597 186.122 33.4198 176.566 47.1707C167.01 60.9215 164.56 86.4037 169.668 101.001C174.777 115.598 187.518 118.538 201.432 115.888C215.346 113.237 230.047 104.906 238.356 96.2045C246.664 87.5025 248.134 78.6818 237.621 65.072C227.107 51.4622 204.565 33.3307 181.927 21.295C159.288 9.25933 137.237 3.86889 115.831 5.74738C94.4249 7.62588 74.3332 16.9367 62.0228 33.0041C49.7124 49.0715 45.7921 71.6134 48.4279 88.8614C53.0988 119.427 80.7483 138.793 102.963 155.848C123.558 171.659 144.157 171.077 154.782 167.632C159.868 165.983 162.956 161.246 163.743 154.081C164.53 146.916 162.57 136.625 158.375 129.119C154.18 121.612 147.81 117.202 139.382 114.44C121.243 108.495 98.3007 112.628 77.2957 120.023C67.6166 123.431 61.6812 130.359 63.7899 138.044C69.4343 158.614 97.5879 170.022 118.563 179.415C129.396 184.266 141.989 185.867 150.26 185.904C158.531 185.941 162.451 183.491 166.186 178.554C174.767 167.209 178.356 147.421 176.663 126.179C175.832 115.751 165.659 107.876 156.964 102.605C140.373 92.5448 117.115 96.2936 94.8778 105.649C83.9371 110.252 77.5407 121.865 75.2242 131.324C72.9076 140.783 75.8479 149.604 83.4881 159.049C100.895 180.567 125.312 192.802 143.585 199.729C152.289 203.029 160.877 202.736 167.864 200.539C181.475 196.257 190.206 176.141 196.398 153.658C199.156 143.645 197.2 135.586 188.364 127.872C179.529 120.157 162.867 112.806 146.198 111.47C113.271 108.83 85.916 128.414 70.0714 145.691C63.1229 153.268 65.9877 163.949 74.3332 175.116C82.6787 186.283 98.36 199.024 113.299 209.018C140.934 227.505 171.287 232.941 197.489 230.736C216.022 229.176 228.785 209.775 236.982 190.025C240.81 180.803 231.948 170.275 225.489 164.736C214.231 155.083 180.598 166.028 142.248 181.598C127.975 187.393 125.951 192.757 128.609 200.665C135.576 221.389 153.066 236.846 165.162 245.749C170.91 249.98 177.747 250.731 185.439 248.793C193.131 246.855 201.952 241.465 206.741 234.032C211.53 226.6 212.02 217.289 204.187 200.242C196.353 183.194 180.182 158.692 165.481 143.375C150.78 128.057 138.039 122.667 125.839 122.585C113.64 122.503 102.369 127.894 95.8282 136.796C89.2869 145.699 87.8168 157.95 93.675 171.121C107.077 201.255 131.297 215.581 145.582 221.759C167.226 231.118 196.056 220.155 218.554 204.593C228.221 197.906 232.72 191.48 235.98 182.57C239.239 173.661 240.71 161.9 236.567 151.676C232.423 141.452 222.623 133.121 212.428 128.829C202.234 124.538 191.943 124.538 180.026 129.438C168.109 134.339 154.878 144.14 146.592 154.334C138.306 164.528 135.366 174.819 139.976 183.061C150.715 202.255 183.672 206.182 212.064 210.146C226.146 212.113 239.967 210.191 248.016 207.726C256.064 205.261 258.024 201.341 259.769 194.176C261.514 187.011 262.984 176.72 260.311 167.988C257.638 159.256 250.778 152.396 241.853 148.617C232.928 144.837 222.147 144.347 211.938 148.26C201.729 152.173 192.418 160.504 192.522 175.576C192.626 190.649 202.427 212.211 213.601 222.093C224.776 231.976 237.027 229.525 247.503 221.158C257.98 212.79 266.31 198.579 268.642 184.887C270.973 171.196 267.053 158.455 262.338 149.931C257.623 141.407 252.233 137.487 244.556 140.858C236.878 144.228 227.077 155.009 221.784 168.404C216.49 181.798 216 197.48 218.687 208.988C221.375 220.497 227.256 227.357 232.98 232.117C238.705 236.876 244.095 239.326 248.587 239.853C256.511 240.783 276.705 222.204 301.705 195.267C311.504 184.709 309.553 175.68 304.4 168.701C299.247 161.721 289.446 155.841 278.027 155.262C266.607 154.683 253.866 159.583 249.753 167.253C245.64 174.923 250.54 185.214 258.7 194.925C275.973 215.484 300.034 223.526 318.812 222.806C327.461 222.474 333.669 216.695 337.441 209.523C341.212 202.35 342.193 192.55 339.757 182.845C334.706 162.716 318.032 151.297 304.2 146.597C297.84 144.436 292.327 144.347 288.57 144.83C284.813 145.313 282.853 146.783 283.068 150.97C283.284 155.158 285.734 162.019 288.466 165.798C291.199 169.577 294.139 170.067 300.799 163.704C307.459 157.341 317.75 144.11 323.541 135.824C329.333 127.537 330.313 124.597 328.353 117.113" stroke="black" stroke-width="6.75" stroke-linecap="round"/>
</svg>
