<svg width="175" height="27" viewBox="0 0 175 27" fill="none" xmlns="http://www.w3.org/2000/svg">
<path d="M41.5862 14.6235C40.5566 12.7174 39.2444 9.78184 38.3056 7.53345L37.7429 7.59569C37.9296 10.3135 38.0878 14.2475 38.0878 16.7163V23.1502H34.7451V4.41113H39.8357L43.959 11.7501C45.3335 14.1852 46.739 17.3413 47.5818 19.4963L48.1446 19.4652C47.9579 16.8097 47.7997 13.3735 47.7997 10.9073V4.41113H51.0802V23.1502H46.3941L41.5836 14.6235H41.5862Z" fill="#F6F6F9"/>
<path d="M53.8912 15.9984C53.8912 11.0323 56.7024 8.09668 61.2925 8.09668C65.8826 8.09668 67.882 10.7833 67.882 14.8107C67.882 15.3735 67.882 16.0296 67.8198 16.779H57.2314C57.4803 19.4345 58.8237 20.7779 61.3236 20.7779C63.6653 20.7779 64.477 19.6524 64.8842 18.2468L67.7576 19.0585C67.0703 21.714 65.2265 23.5242 61.2925 23.5242C56.7957 23.5242 53.8912 20.8998 53.8912 15.9958V15.9984ZM57.2651 14.5306H64.7934C64.6689 11.9996 63.5435 10.6874 61.2017 10.6874C58.86 10.6874 57.5789 11.9062 57.2651 14.5306Z" fill="#F6F6F9"/>
<path d="M80.4725 19.2789H80.1613C79.3496 21.9967 77.4746 23.5578 75.0395 23.5578C71.9483 23.5578 70.4805 21.465 70.4805 18.2805V8.47266H73.8544V17.4065C73.8544 19.1855 74.635 20.4977 76.6344 20.4977C78.9139 20.4977 80.3817 18.9988 80.3817 16.7816V8.47266H83.7556V23.1533H80.4777V19.2815L80.4725 19.2789Z" fill="#F6F6F9"/>
<path d="M87.2488 23.1507V8.47005H90.4359V12.8735L90.716 12.9046C91.5588 9.34399 92.9333 8.31445 95.0572 8.31445H95.5888V12.0929H94.7771C91.6859 12.0929 90.5915 13.1872 90.5915 16.1851V23.1507H87.2488Z" fill="#F6F6F9"/>
<path d="M97.0255 15.7806C97.0255 10.9389 99.9299 8.09668 104.492 8.09668C109.053 8.09668 111.893 10.9389 111.893 15.7806C111.893 20.6223 109.144 23.5579 104.492 23.5579C99.8392 23.5579 97.0255 20.5911 97.0255 15.7806ZM100.399 15.7495C100.399 18.7784 101.649 20.6534 104.46 20.6534C107.272 20.6534 108.553 18.7784 108.553 15.7495C108.553 12.7205 107.178 10.9389 104.46 10.9389C101.743 10.9389 100.399 12.7179 100.399 15.7495Z" fill="#F6F6F9"/>
<path d="M117.997 16.3772V23.1561H114.437V4.41699H127.367V7.6975H117.997V13.2886H126.462V16.3798H117.997V16.3772Z" fill="#F6F6F9"/>
<path d="M133.521 23.1558H130.147V3.10449H133.521V23.1558Z" fill="#F6F6F9"/>
<path d="M136.27 15.7855C136.27 10.9438 139.174 8.10156 143.736 8.10156C148.297 8.10156 151.137 10.9438 151.137 15.7855C151.137 20.6272 148.388 23.5628 143.736 23.5628C139.083 23.5628 136.27 20.596 136.27 15.7855ZM139.644 15.7544C139.644 18.7833 140.894 20.6583 143.705 20.6583C146.516 20.6583 147.797 18.7833 147.797 15.7544C147.797 12.7254 146.422 10.9438 143.705 10.9438C140.987 10.9438 139.644 12.7228 139.644 15.7544Z" fill="#F6F6F9"/>
<path d="M167.13 14.2243C167.662 16.2548 168.128 18.4098 168.536 20.6271H169.098C169.537 18.441 170.066 16.4415 170.628 14.162L171.66 9.68861C171.824 8.97804 172.457 8.47754 173.185 8.47754C174.23 8.47754 174.982 9.48633 174.684 10.4873L171.243 22.0379C171.046 22.7017 170.436 23.1556 169.744 23.1556H167.739C167.016 23.1556 166.386 22.6602 166.217 21.9549L164.972 16.7527C164.534 14.8467 164.13 12.9095 163.816 10.9438H163.315C162.97 12.8809 162.566 14.8804 162.159 16.7527L160.968 21.9419C160.805 22.6525 160.172 23.1556 159.443 23.1556H157.545C156.853 23.1556 156.243 22.7017 156.046 22.0379L152.605 10.4873C152.307 9.48374 153.056 8.47754 154.104 8.47754H154.262C154.975 8.47754 155.598 8.95989 155.777 9.64971L156.941 14.162C157.535 16.4104 158.066 18.441 158.502 20.6271H159.065C159.472 18.441 159.939 16.2859 160.47 14.2243L161.583 9.67045C161.754 8.97026 162.382 8.47754 163.103 8.47754H164.464C165.182 8.47754 165.807 8.96508 165.981 9.66267L167.122 14.2243H167.13Z" fill="#F6F6F9"/>
<path d="M16.5582 10.5856H13.2466L15.5883 12.9274L14.2605 14.2551L11.9188 11.9134V15.225H10.0438V11.9134L7.70211 14.2551L6.37693 12.9274L8.71867 10.5856H5.40704V8.71068H8.71608L6.37693 6.36894L7.70211 5.04118L10.0438 7.38292V4.07129H11.9188V7.38292L14.2605 5.04118L15.5883 6.36894L13.2466 8.71068H16.5582V10.5856Z" fill="#F6F6F9"/>
<path d="M17.4556 26.667L6.79196 26.6229L6.6986 19.7325C5.30341 19.162 2.74902 17.6916 1.22157 15.0387C-0.0750732 12.7825 -0.342182 10.2151 0.433212 7.4092L0.456551 7.33918C1.95029 3.22104 4.58248 1.44463 6.53004 0.682206C8.47241 -0.0828147 10.1269 -0.0102027 10.4459 0.013137H17.6138L23.9414 14.2633H20.9798C21.0084 15.0827 21.0343 16.2938 20.9798 17.3882C20.915 19.4732 19.2475 20.1682 18.3736 20.246H18.301L17.4504 20.2589V26.6696L17.4556 26.667ZM8.60726 24.7868L15.6117 24.8154V18.4307L18.2361 18.4047C18.511 18.3658 19.1153 18.1791 19.1386 17.3208V17.3026C19.2242 15.5599 19.0971 13.4179 19.0945 13.3971L19.0349 12.4194H21.1043L16.4183 1.85437H10.3655L10.3214 1.84919C10.0906 1.82844 4.58766 1.41611 2.19924 7.93045C1.57426 10.2307 1.78172 12.3131 2.81904 14.1154C4.34908 16.7736 7.21726 18.0183 7.84483 18.1843L8.52168 18.3633L8.60726 24.7868Z" fill="#F6F6F9"/>
</svg>
