<svg width="144" height="22" viewBox="0 0 144 22" fill="none" xmlns="http://www.w3.org/2000/svg">
<path d="M34.2684 12.063C33.42 10.4906 32.3387 8.06902 31.5652 6.21431L31.1014 6.26565C31.2553 8.50756 31.3856 11.7528 31.3856 13.7893V19.0968H28.6311V3.63867H32.826L36.2237 9.6927C37.3563 11.7014 38.5145 14.3049 39.2091 16.0826L39.6728 16.0569C39.5189 13.8663 39.3886 11.0319 39.3886 8.99745V3.63867H42.0918V19.0968H38.2303L34.2663 12.063H34.2684Z" fill="#0177EB"/>
<path d="M44.4082 13.197C44.4082 9.10032 46.7247 6.67871 50.5071 6.67871C54.2895 6.67871 55.9371 8.89496 55.9371 12.2172C55.9371 12.6814 55.9371 13.2226 55.8858 13.8409H47.1606C47.3658 16.0314 48.4727 17.1396 50.5327 17.1396C52.4624 17.1396 53.1313 16.2111 53.4668 15.0517L55.8345 15.7212C55.2682 17.9118 53.7489 19.405 50.5071 19.405C46.8016 19.405 44.4082 17.2401 44.4082 13.1948V13.197ZM47.1884 11.9861H53.392C53.2894 9.89825 52.362 8.8158 50.4323 8.8158C48.5026 8.8158 47.447 9.82124 47.1884 11.9861Z" fill="#0177EB"/>
<path d="M66.3121 15.9025H66.0556C65.3868 18.1444 63.8417 19.4322 61.8351 19.4322C59.2879 19.4322 58.0784 17.7058 58.0784 15.0789V6.98828H60.8586V14.3579C60.8586 15.8254 61.5018 16.9079 63.1494 16.9079C65.0278 16.9079 66.2373 15.6714 66.2373 13.8424V6.98828H69.0175V19.0985H66.3163V15.9046L66.3121 15.9025Z" fill="#0177EB"/>
<path d="M71.896 19.0969V6.98675H74.5223V10.6192L74.7531 10.6448C75.4476 7.70767 76.5802 6.8584 78.3304 6.8584H78.7685V9.97526H78.0996C75.5523 9.97526 74.6505 10.878 74.6505 13.351V19.0969H71.896Z" fill="#0177EB"/>
<path d="M79.9523 13.0173C79.9523 9.02331 82.3457 6.67871 86.1046 6.67871C89.8635 6.67871 92.2035 9.02331 92.2035 13.0173C92.2035 17.0112 89.9383 19.4328 86.1046 19.4328C82.2709 19.4328 79.9523 16.9855 79.9523 13.0173ZM82.7325 12.9916C82.7325 15.4902 83.7625 17.0369 86.0789 17.0369C88.3954 17.0369 89.4511 15.4902 89.4511 12.9916C89.4511 10.493 88.3185 9.02331 86.0789 9.02331C83.8394 9.02331 82.7325 10.4908 82.7325 12.9916Z" fill="#0177EB"/>
<path d="M97.2339 13.5087V19.1007H94.2998V3.64258H104.955V6.34871H97.2339V10.9609H104.209V13.5109H97.2339V13.5087Z" fill="#0177EB"/>
<path d="M110.026 19.1011H107.245V2.56055H110.026V19.1011Z" fill="#0177EB"/>
<path d="M112.291 13.0212C112.291 9.02722 114.684 6.68262 118.443 6.68262C122.202 6.68262 124.542 9.02722 124.542 13.0212C124.542 17.0151 122.277 19.4367 118.443 19.4367C114.61 19.4367 112.291 16.9894 112.291 13.0212ZM115.071 12.9955C115.071 15.4941 116.101 17.0408 118.418 17.0408C120.734 17.0408 121.79 15.4941 121.79 12.9955C121.79 10.4969 120.657 9.02722 118.418 9.02722C116.178 9.02722 115.071 10.4947 115.071 12.9955Z" fill="#0177EB"/>
<path d="M137.721 11.7337C138.159 13.4087 138.544 15.1864 138.879 17.0155H139.343C139.704 15.2121 140.14 13.5627 140.604 11.6824L141.454 7.99219C141.589 7.40604 142.11 6.99316 142.711 6.99316C143.572 6.99316 144.191 7.82533 143.946 8.65107L141.11 18.1792C140.948 18.7269 140.445 19.1012 139.875 19.1012H138.223C137.627 19.1012 137.107 18.6926 136.969 18.1108L135.943 13.8195C135.582 12.2471 135.248 10.6491 134.99 9.02757H134.577C134.293 10.6256 133.96 12.2749 133.624 13.8195L132.643 18.1001C132.509 18.6862 131.987 19.1012 131.387 19.1012H129.823C129.252 19.1012 128.75 18.7269 128.587 18.1792L125.752 8.65107C125.506 7.82319 126.123 6.99316 126.987 6.99316H127.117C127.705 6.99316 128.218 7.39106 128.365 7.9601L129.325 11.6824C129.814 13.5371 130.252 15.2121 130.611 17.0155H131.075C131.41 15.2121 131.795 13.4344 132.233 11.7337L133.15 7.97721C133.291 7.39962 133.808 6.99316 134.402 6.99316H135.524C136.116 6.99316 136.631 7.39534 136.774 7.97079L137.714 11.7337H137.721Z" fill="#0177EB"/>
<path d="M13.6445 8.73215H10.9156L12.8453 10.6639L11.7511 11.7592L9.82147 9.82744V12.5592H8.27645V9.82744L6.34678 11.7592L5.25479 10.6639L7.18446 8.73215H4.45557V7.18548H7.18233L5.25479 5.25376L6.34678 4.15847L8.27645 6.0902V3.3584H9.82147V6.0902L11.7511 4.15847L12.8453 5.25376L10.9156 7.18548H13.6445V8.73215Z" fill="#0177EB"/>
<path d="M14.384 21.9979L5.59681 21.9615L5.51988 16.2776C4.37019 15.8069 2.26529 14.594 1.00662 12.4055C-0.0618629 10.5444 -0.28197 8.42657 0.356981 6.11193L0.376214 6.05417C1.6071 2.65707 3.77612 1.19169 5.38097 0.562759C6.98156 -0.0683147 8.34494 -0.00841627 8.60778 0.0108368H14.5143L19.7285 11.7659H17.2881C17.3116 12.4419 17.333 13.4409 17.2881 14.3437C17.2347 16.0636 15.8606 16.6369 15.1405 16.7011H15.0806L14.3797 16.7118V22L14.384 21.9979ZM7.09268 20.4469L12.8646 20.4705V15.2037L15.0272 15.1823C15.2537 15.1502 15.7516 14.9962 15.7709 14.2881V14.2731C15.8414 12.8355 15.7367 11.0685 15.7345 11.0514L15.6854 10.2449H17.3907L13.5292 1.52969H8.54154L8.50521 1.52541C8.31502 1.5083 3.78039 1.16816 1.81225 6.54191C1.29724 8.43941 1.4682 10.1572 2.32298 11.644C3.58379 13.8367 5.94727 14.8635 6.46441 15.0004L7.02216 15.148L7.09268 20.4469Z" fill="#0177EB"/>
</svg>
