<svg width="200" height="116" viewBox="0 0 200 116" fill="none" xmlns="http://www.w3.org/2000/svg">
<path d="M194.471 13.2084C195.267 13.6718 196.214 13.8002 197.104 13.5653C197.995 13.3304 198.755 12.7515 199.219 11.9559C199.682 11.1603 199.811 10.2132 199.576 9.32288C199.341 8.4326 198.762 7.67209 197.966 7.20865C197.966 7.20865 197.966 7.20865 197.966 7.20865C192.639 4.21885 187.243 3.19559 181.951 2.28365C171.189 0.607249 160.551 0.236817 149.935 0.021765C149.494 0.0142 149.05 0.00688481 148.602 -0.000160694C132.673 0.459554 119.449 6.64493 105.885 11.3504C105.099 11.6419 104.336 11.925 103.551 12.2163C94.0978 15.7422 84.8948 20.143 76.4605 26.1201C75.506 26.8005 74.5649 27.5032 73.6525 28.2142C63.3823 36.238 53.3642 44.4665 43.297 52.5466C42.1371 53.4749 40.9676 54.4067 39.8255 55.2985C28.7207 63.911 22.1146 75.5008 13.8063 84.8579C12.6614 86.196 11.4939 87.516 10.2977 88.8264C7.36535 92.0186 4.88381 95.8011 3.14692 99.7515C2.32179 101.569 1.53245 103.799 1.07846 104.58C1.04963 104.633 1.00365 104.691 1.10596 104.547C1.13374 104.509 1.17312 104.458 1.23514 104.385C1.32304 104.286 1.47768 104.098 1.83581 103.827C2.0703 103.685 2.06158 103.564 3.0728 103.201C3.9075 102.85 5.85223 103.025 6.80587 103.858C8.50917 105.306 8.30785 106.409 8.3914 106.462C8.46619 106.993 8.43119 107.088 8.4347 107.153C8.4311 107.219 8.42944 107.223 8.43083 107.215C8.43331 107.195 8.44564 107.113 8.46151 107.024C8.52947 106.642 8.64517 106.122 8.76402 105.61C9.0046 104.578 9.27485 103.495 9.54111 102.409C10.0761 100.227 10.6147 98.0155 11.0752 95.6959C11.3309 94.3831 11.52 93.0437 11.6205 91.5231C11.6372 91.0665 11.7083 90.5692 11.8453 90.0394C11.966 89.5709 12.1214 89.085 12.3183 88.5195C12.4171 88.2334 12.5257 87.9344 12.6556 87.5403C12.7216 87.3366 12.7936 87.1162 12.8775 86.78C12.918 86.6129 12.9658 86.4069 13.0064 86.1109C13.0375 85.7893 13.1179 85.4268 12.9727 84.5615C12.8601 84.0631 12.8538 83.755 12.4209 82.7654C12.3894 82.6999 12.3753 82.6697 12.3191 82.5627C12.2645 82.4597 12.2023 82.3506 12.1284 82.234C11.9801 82.0013 11.788 81.7354 11.4948 81.4424C11.348 81.2965 11.1749 81.1445 10.9674 80.995C10.6868 80.7906 10.2579 80.5465 9.78186 80.3958C8.83777 80.0525 7.52414 80.2092 6.88812 80.5064C5.69008 81.0145 5.19893 81.7383 4.98725 82.0034C4.78275 82.2825 4.65098 82.515 4.54128 82.7259C3.9094 84.0737 3.88659 84.5168 3.68976 85.243C3.39185 86.518 3.19937 87.6803 3.02049 88.849C2.67496 91.152 2.42436 93.4343 2.22419 95.7183C1.87493 100.339 1.49064 104.674 2.06185 109.929C2.10048 110.207 2.14448 110.481 2.19608 110.752C2.3221 111.382 2.50729 112.083 3.0235 112.931C3.50513 113.754 4.51683 114.686 5.5601 115.084C7.70258 115.862 8.9466 115.397 9.85654 115.193C11.6556 114.651 12.7428 113.997 13.8639 113.371C16.0381 112.107 17.9089 110.819 19.7403 109.713C20.5856 109.2 21.4217 108.724 22.1704 108.368L21.7191 108.55C21.8109 108.519 21.9038 108.489 21.9966 108.459C24.1629 107.763 26.557 107.336 29.0391 107.02L28.8865 107.037C28.9187 107.034 28.9508 107.031 28.9828 107.029C30.1173 106.931 31.2993 106.93 32.642 106.938C33.7182 106.943 34.7503 106.52 35.5112 105.759C36.2722 104.998 36.6997 103.961 36.6997 102.88C36.6997 101.799 36.2722 100.763 35.5112 100.002C34.7503 99.2409 33.7182 98.8177 32.642 98.8227C32.642 98.8227 32.642 98.8227 32.642 98.8227C31.3084 98.8277 29.8101 98.8402 28.277 98.981C28.2339 98.9849 28.1906 98.9889 28.1472 98.993L27.9947 99.0099C25.2409 99.3804 22.4099 99.8877 19.5401 100.805C19.4175 100.844 19.294 100.885 19.1714 100.926L18.7201 101.108C17.5623 101.66 16.5467 102.249 15.5772 102.833C13.5134 104.082 11.6195 105.37 9.8488 106.387C8.99625 106.882 8.06957 107.328 7.6761 107.427C7.5909 107.452 7.55986 107.446 7.675 107.437C7.7882 107.434 8.0961 107.409 8.61677 107.614C9.13304 107.803 9.69259 108.329 9.8853 108.676C10.1024 109.036 10.119 109.207 10.132 109.25C10.11 109.132 10.087 108.99 10.0651 108.828C9.66548 105.261 9.95273 100.654 10.3166 96.4371C10.5118 94.2975 10.7588 92.1428 11.0771 90.0823C11.2379 89.05 11.4222 88.0082 11.6309 87.1392C11.6863 86.91 11.7345 86.7293 11.7858 86.5609C11.8232 86.4222 11.905 86.2569 11.7993 86.48C11.7609 86.5531 11.6998 86.6687 11.5652 86.853C11.4275 87.0133 11.0683 87.6035 9.97009 88.0763C9.39256 88.3486 8.15608 88.4973 7.27819 88.1767C6.83554 88.0365 6.44293 87.8118 6.19206 87.629C6.00621 87.4952 5.85471 87.3616 5.7293 87.2369C5.24322 86.7468 5.08053 86.3545 5.03419 86.2681C4.91591 86.0123 4.9104 85.9453 4.91056 85.9558C4.91079 85.9574 4.92249 86.0053 4.93757 86.0868C4.82108 85.3793 4.89035 85.1751 4.9003 85.0156C4.91985 84.8753 4.93287 84.8316 4.93583 84.8165C4.94238 84.7915 4.91835 84.8771 4.88367 84.9797C4.81325 85.1913 4.70258 85.4973 4.59026 85.8163C4.36186 86.4633 4.11889 87.1938 3.91572 87.9673C3.68386 88.8479 3.4808 89.7884 3.36761 90.7845C3.23887 91.7471 2.98499 92.9019 2.75799 94.0536C2.34853 96.1191 1.8391 98.2452 1.31732 100.405C1.05638 101.487 0.789454 102.574 0.528485 103.718C0.397131 104.301 0.269555 104.862 0.143198 105.586C0.112274 105.768 0.0799232 105.968 0.0499768 106.221C0.0372219 106.33 0.0185847 106.504 0.00816774 106.703C0.00301981 106.813 -0.000807762 106.881 0.000124931 107.067C0.00290155 107.257 0.0103135 107.48 0.0616517 107.806C0.148319 107.896 -0.0179729 109.125 1.72683 110.594C2.70428 111.446 4.68271 111.626 5.55505 111.264C6.61234 110.884 6.62058 110.749 6.87963 110.589C7.28393 110.284 7.49929 110.036 7.63869 109.876C7.73733 109.761 7.81582 109.66 7.88525 109.566C7.95448 109.472 8.01424 109.386 8.06945 109.303C8.10964 109.243 8.14448 109.189 8.17944 109.133C8.24873 109.023 8.31263 108.916 8.37504 108.808C9.72401 106.24 10.065 104.8 10.8258 103.159C12.2435 99.9038 14.0835 97.0131 16.4426 94.3761C17.6785 92.9936 18.8871 91.6038 20.0767 90.2035C28.7642 80.2328 35.3571 68.982 44.8416 61.7031C46.0303 60.7684 47.2126 59.8192 48.3835 58.8746C58.492 50.6958 68.4131 42.3847 78.5019 34.4041C79.3305 33.7504 80.1695 33.1164 81.0307 32.4955C88.6377 27.0361 97.3052 22.8494 106.26 19.4481C107.046 19.151 107.808 18.8619 108.592 18.5644C121.948 13.7135 135.474 7.23607 148.501 6.94414C148.943 6.94999 149.382 6.95664 149.816 6.9641C160.261 7.1702 170.762 7.56144 180.843 9.138C185.751 9.9493 190.716 11.0568 194.471 13.2084Z" fill="black"/>
</svg>
