<svg width="256" height="136" viewBox="0 0 256 136" fill="none" xmlns="http://www.w3.org/2000/svg">
<path d="M1.43359 21.1154C0.636029 21.7618 0.127919 22.6986 0.0210361 23.7196C-0.0858471 24.7407 0.217251 25.7623 0.863654 26.5599C1.51006 27.3574 2.44681 27.8656 3.46785 27.9724C4.48888 28.0793 5.51055 27.7762 6.30811 27.1298C6.30811 27.1298 6.30811 27.1298 6.30811 27.1298C10.3636 24.7926 17.4393 21.9051 23.2236 19.5472C26.3032 18.307 29.399 17.1009 32.5019 15.9451C33.0743 15.732 33.6573 15.5171 34.2266 15.3098C44.8246 11.5125 56.9605 10.7553 68.9078 9.42873C70.7528 9.2389 72.6028 9.04969 74.4624 8.85776C93.0162 6.87151 111.734 9.2639 129.388 15.4749C132.814 16.6441 136.223 17.9443 139.761 19.2397C147.696 22.2504 155.603 27.1484 163.21 32.087C166.663 34.3525 170.082 36.7028 173.456 39.1039C184.064 46.9553 193.496 57.6625 201.813 68.5371C203.966 71.4074 206.042 74.3463 207.854 77.3019C209.488 79.9576 210.685 82.8614 211.786 86.101C212.743 88.9004 213.672 91.931 214.845 94.9751C216.54 99.4045 218.146 103.836 219.197 108.164C219.703 110.254 220.064 112.314 220.271 114.423C220.688 118.534 221.727 122.271 222.733 125.786C223.214 127.467 223.709 129.122 224.046 130.58C224.051 130.602 224.04 130.568 224.028 130.44C224.024 130.395 224.013 130.24 224.024 130.051C224.029 129.954 224.04 129.84 224.061 129.707C224.085 129.566 224.101 129.46 224.183 129.186C224.332 128.701 224.655 128.04 225.255 127.469C225.896 126.842 226.774 126.481 227.408 126.386C228.438 126.237 228.884 126.444 229.03 126.473C229.391 126.599 229.233 126.559 229.133 126.49C229.012 126.418 228.825 126.294 228.634 126.159C227.836 125.59 226.902 124.81 225.992 124.021C224.151 122.42 222.288 120.69 220.406 118.959C216.537 115.484 213.108 111.953 207.913 108.59C207.61 108.408 207.302 108.242 206.985 108.088C206.629 107.931 206.204 107.714 205.694 107.354C205.597 107.285 205.497 107.214 205.352 107.114C205.278 107.062 205.2 107.008 205.047 106.91C204.967 106.861 204.876 106.801 204.661 106.686C204.608 106.658 204.525 106.616 204.433 106.573C204.347 106.534 204.21 106.471 203.993 106.396C203.872 106.356 203.802 106.33 203.563 106.271C203.332 106.218 203.038 106.16 202.612 106.15C202.282 106.139 201.113 106.169 200.025 106.919C198.852 107.658 198.17 109.197 198.113 110.048C197.897 111.539 198.34 113.251 198.985 114.329C199.625 115.44 200.324 116.127 200.958 116.693C202.226 117.787 203.345 118.424 204.409 119.027C206.534 120.195 208.502 121.09 210.406 122.018C214.211 123.852 217.759 125.732 220.879 128.023C220.967 128.088 221.055 128.153 221.144 128.218C222.735 129.33 225.143 131.078 228.84 130.788C229.331 130.742 229.806 130.653 230.248 130.538C236.761 128.773 240.774 124.152 244.08 120.37C246.724 117.274 249.061 114.24 251.554 111.928C251.57 111.912 251.587 111.897 251.603 111.882C252.936 110.658 254.104 109.413 255.132 108.443C255.133 108.442 255.135 108.44 255.137 108.439C255.751 107.855 255.938 106.693 255.691 104.959C255.637 104.451 255.586 103.967 255.523 103.578C255.458 103.187 255.365 102.897 255.181 102.669C254.997 102.441 254.734 102.289 254.364 102.143C253.998 102 253.535 101.848 253.05 101.688C253.05 101.688 253.05 101.688 253.05 101.688C251.279 101.198 249.978 101.331 249.158 102.097C249.156 102.099 249.153 102.101 249.151 102.103C247.817 103.37 246.761 104.505 245.7 105.474C245.673 105.499 245.651 105.52 245.629 105.54C242.368 108.591 239.924 111.84 237.458 114.702C234.406 118.302 231.254 121.313 228.052 122.089C228.019 122.097 228.01 122.097 228.014 122.097C228.048 122.087 228.082 122.118 227.766 121.962C227.47 121.812 226.986 121.489 226.463 121.091C226.355 121.009 226.247 120.929 226.139 120.849C222.317 118.045 218.213 115.918 214.268 114.022C212.314 113.077 210.351 112.175 208.711 111.272C207.908 110.831 207.159 110.347 206.806 110.032C206.63 109.884 206.588 109.783 206.696 109.959C206.804 110.109 206.982 110.72 206.908 111.139C206.852 111.981 206.174 113.513 205.008 114.248C203.925 114.994 202.767 115.022 202.443 115.011C202.024 115.002 201.738 114.945 201.516 114.894C201.286 114.837 201.221 114.813 201.108 114.776C200.692 114.625 200.637 114.578 200.527 114.525C200.366 114.439 200.332 114.413 200.304 114.397C200.259 114.368 200.286 114.385 200.315 114.405C200.379 114.45 200.486 114.525 200.596 114.602C201.224 115.046 201.965 115.596 202.848 116.081C202.964 116.151 203.107 116.238 203.273 116.337C206.675 118.498 210.592 122.225 214.296 125.6C216.178 127.327 218.061 129.077 220.087 130.836C221.11 131.716 222.124 132.585 223.419 133.512C224.106 133.956 224.598 134.456 226.351 135.08C226.755 135.193 227.601 135.478 228.895 135.277C229.701 135.153 230.725 134.724 231.48 133.988C232.186 133.316 232.588 132.521 232.79 131.866C232.901 131.494 232.926 131.336 232.963 131.121C232.995 130.917 233.014 130.728 233.024 130.55C233.045 130.215 233.024 129.82 233.008 129.662C232.972 129.255 232.908 128.9 232.83 128.562C232.381 126.637 231.867 124.954 231.395 123.297C230.409 119.881 229.549 116.617 229.245 113.536C228.999 111.013 228.556 108.479 227.965 106.046C226.73 100.99 225.006 96.3206 223.249 91.7378C222.202 89.043 221.323 86.1989 220.289 83.1812C219.107 79.7116 217.606 76.0042 215.508 72.6138C213.454 69.2809 211.246 66.1802 208.961 63.1502C200.086 51.6839 190.665 40.8866 178.53 31.9405C175.064 29.4983 171.548 27.1047 167.975 24.7847C160.032 19.7099 152.085 14.7127 142.67 11.172C139.255 9.9446 135.7 8.61356 132.118 7.41778C113.521 0.99341 93.2302 -1.44243 73.6034 0.837218C71.75 1.04297 69.9031 1.2462 68.0563 1.45036C56.0918 2.90441 43.8052 3.69248 31.5715 8.03622C30.986 8.25038 30.3876 8.4714 29.8007 8.68988C26.6203 9.87466 23.4692 11.1025 20.3305 12.3665C14.0112 15.0518 8.65028 16.7647 1.43359 21.1154Z" fill="black"/>
</svg>
