<svg width="163" height="164" viewBox="0 0 163 164" fill="none" xmlns="http://www.w3.org/2000/svg">
<path d="M158.729 7.41023C159.629 7.60139 160.569 7.42692 161.341 6.92521C162.113 6.4235 162.654 5.63565 162.845 4.73496C163.037 3.83428 162.862 2.89454 162.36 2.12249C161.859 1.35045 161.071 0.809318 160.17 0.618158C160.17 0.618158 160.17 0.618158 160.17 0.618158C154.175 -0.554174 148.729 0.162763 143.418 0.952871C132.672 2.72886 122.453 5.70606 112.303 8.82435C111.882 8.95508 111.457 9.08725 111.029 9.22086C96.0447 14.6426 85.4208 24.6559 74.0109 33.37C73.3556 33.8928 72.7194 34.4006 72.065 34.9229C64.1902 41.2301 56.8269 48.2901 50.6869 56.6066C49.9932 57.5515 49.3193 58.5135 48.6753 59.4743C41.4321 70.3092 34.4926 81.2596 27.4599 92.0845C26.6488 93.3292 25.8297 94.5802 25.024 95.7846C17.1725 107.44 14.5254 120.515 9.56291 132.002C8.89433 133.631 8.19856 135.25 7.47257 136.869C5.68657 140.819 4.5135 145.188 4.10018 149.484C3.8854 151.468 3.83359 153.833 3.64687 154.717C3.63596 154.776 3.61034 154.845 3.66251 154.677C3.67714 154.632 3.69835 154.571 3.73453 154.483C3.78711 154.361 3.87521 154.134 4.13043 153.765C4.30874 153.557 4.26257 153.444 5.10927 152.783C5.79236 152.189 7.69402 151.746 8.86041 152.238C10.9315 153.081 11.0853 154.191 11.1814 154.216C11.4186 154.697 11.4152 154.798 11.4387 154.858C11.4558 154.922 11.4558 154.927 11.4545 154.919C11.4507 154.899 11.4366 154.817 11.4239 154.728C11.3688 154.343 11.3159 153.813 11.2687 153.29C11.1742 152.235 11.0918 151.121 11.0049 150.007C10.8301 147.767 10.6495 145.498 10.3609 143.151C10.193 141.824 9.95339 140.492 9.57291 139.017C9.44583 138.578 9.35776 138.083 9.32201 137.537C9.29009 137.054 9.28562 136.544 9.29562 135.946C9.29995 135.643 9.30946 135.325 9.30955 134.91C9.30842 134.696 9.30784 134.464 9.28233 134.118C9.26853 133.947 9.24943 133.736 9.19533 133.443C9.12424 133.127 9.08713 132.758 8.67847 131.982C8.4155 131.543 8.31309 131.253 7.59221 130.448C7.54181 130.396 7.51895 130.372 7.43213 130.288C7.34808 130.207 7.25482 130.123 7.14816 130.035C6.93443 129.861 6.66877 129.668 6.29862 129.482C6.1135 129.389 5.90157 129.299 5.65771 129.222C5.32724 129.115 4.8435 129.018 4.34419 129.024C3.34008 128.993 2.14146 129.553 1.63042 130.034C0.651568 130.892 0.41163 131.733 0.293559 132.051C0.186675 132.38 0.134266 132.642 0.096084 132.877C-0.082229 134.355 0.034794 134.783 0.0751014 135.534C0.191205 136.838 0.372139 138.002 0.568022 139.168C0.960606 141.464 1.43687 143.71 1.96158 145.942C3.07597 150.44 4.06778 154.677 6.25484 159.489C6.3786 159.742 6.50592 159.987 6.63978 160.229C6.95686 160.788 7.35193 161.396 8.10755 162.039C8.82264 162.67 10.0752 163.239 11.1907 163.291C13.4691 163.359 14.5051 162.528 15.3054 162.049C16.8446 160.972 17.6722 160.01 18.5411 159.065C20.2104 157.184 21.5844 155.375 22.9774 153.751C23.62 153 24.2649 152.286 24.8646 151.713L24.4929 152.027C24.5705 151.969 24.6492 151.912 24.728 151.854C26.5679 150.516 28.708 149.361 30.9665 148.284L30.8269 148.348C30.8565 148.335 30.8861 148.322 30.9157 148.31C31.9627 147.862 33.085 147.491 34.3627 147.078C35.3864 146.746 36.2342 146.021 36.7187 145.06C37.2033 144.099 37.285 142.981 36.9466 141.954C36.6083 140.928 35.8779 140.077 34.917 139.593C33.9561 139.108 32.8435 139.029 31.8229 139.371C30.5578 139.793 29.1388 140.273 27.7267 140.887C27.687 140.904 27.6472 140.921 27.6072 140.939L27.4676 141.003C24.9681 142.217 22.4381 143.584 19.9996 145.354C19.8954 145.429 19.7908 145.507 19.6872 145.584L19.3155 145.898C18.3888 146.785 17.6086 147.662 16.8706 148.521C15.3013 150.352 13.9054 152.168 12.5421 153.688C11.8872 154.425 11.1467 155.139 10.8041 155.356C10.731 155.407 10.6997 155.411 10.8061 155.366C10.9126 155.328 11.1971 155.207 11.756 155.239C12.3055 155.257 13.0013 155.581 13.293 155.851C13.612 156.125 13.6813 156.282 13.7071 156.319C13.6494 156.214 13.583 156.086 13.5113 155.939C12.0156 152.676 10.8466 148.211 9.87239 144.092C9.38819 141.999 8.94845 139.875 8.6059 137.818C8.43551 136.787 8.28449 135.74 8.21071 134.85C8.19169 134.615 8.18092 134.428 8.17692 134.252C8.16903 134.108 8.19492 133.926 8.16443 134.171C8.15082 134.252 8.12896 134.381 8.0588 134.598C7.97821 134.794 7.82173 135.467 6.92668 136.26C6.46336 136.699 5.33555 137.227 4.40141 137.197C3.93714 137.203 3.49393 137.112 3.19844 137.017C2.98004 136.948 2.79434 136.869 2.63623 136.79C2.02117 136.476 1.74388 136.154 1.67282 136.087C1.48042 135.881 1.45423 135.819 1.45767 135.829C1.45839 135.83 1.4845 135.872 1.52433 135.945C1.19226 135.309 1.19413 135.094 1.15369 134.939C1.12832 134.8 1.12703 134.754 1.12512 134.739C1.1235 134.713 1.12746 134.802 1.12664 134.91C1.12599 135.133 1.11663 135.459 1.10981 135.797C1.09537 136.483 1.09322 137.253 1.14232 138.051C1.19771 138.96 1.29922 139.917 1.50343 140.898C1.68242 141.853 1.8027 143.029 1.94755 144.194C2.20509 146.284 2.38665 148.462 2.56706 150.677C2.65773 151.786 2.74462 152.903 2.85456 154.07C2.9125 154.666 2.96683 155.238 3.0732 155.965C3.10088 156.147 3.13284 156.348 3.18353 156.597C3.20564 156.705 3.24237 156.876 3.29481 157.069C3.32425 157.174 3.34188 157.24 3.40082 157.416C3.463 157.596 3.54002 157.806 3.69057 158.099C3.80131 158.158 4.0279 159.377 6.14484 160.226C7.33965 160.729 9.27518 160.281 9.99026 159.664C10.8757 158.973 10.841 158.841 11.0373 158.609C11.3258 158.193 11.4525 157.889 11.535 157.694C11.5926 157.554 11.6355 157.433 11.6721 157.322C11.7085 157.212 11.7383 157.111 11.7648 157.015C11.7841 156.945 11.8002 156.883 11.816 156.819C11.8473 156.693 11.8746 156.571 11.9 156.449C12.3774 153.587 12.2508 152.114 12.4597 150.316C12.7875 146.781 13.6304 143.46 15.0456 140.217C15.7868 138.517 16.4997 136.819 17.1913 135.117C22.3219 122.928 25.0625 110.179 31.7925 100.298C32.629 99.0378 33.4548 97.7664 34.2713 96.5028C41.3123 85.5712 48.134 74.5727 55.2183 63.8355C55.8007 62.9553 56.3991 62.0906 57.0228 61.2314C62.539 53.6655 69.4608 46.9765 76.9017 40.9434C77.5545 40.4155 78.1879 39.9024 78.8393 39.3745C90.0068 30.5871 100.825 20.2022 113.107 15.8478C113.529 15.715 113.947 15.5841 114.362 15.4552C124.347 12.382 134.443 9.4673 144.51 7.80972C149.427 7.04398 154.488 6.54215 158.729 7.41023Z" fill="black"/>
</svg>
