<svg width="173" height="152" viewBox="0 0 173 152" fill="none" xmlns="http://www.w3.org/2000/svg">
<path d="M4.4654 7.94707C3.58318 8.21062 2.63239 8.11291 1.8222 7.67545C1.01203 7.23798 0.408812 6.49659 0.145259 5.61437C-0.118294 4.73214 -0.020591 3.78136 0.416871 2.97117C0.854348 2.16099 1.59573 1.55777 2.47795 1.29422C2.47795 1.29422 2.47795 1.29422 2.47795 1.29422C8.35861 -0.36032 13.8441 -0.0872102 19.2023 0.269663C30.0571 1.16858 40.4835 3.30752 50.8532 5.59262C51.2834 5.6888 51.7171 5.78612 52.1546 5.88459C67.5293 10.0736 78.9301 19.1926 91.0089 26.953C91.7044 27.421 92.3796 27.8755 93.0743 28.343C101.435 33.9911 109.346 40.4308 116.14 48.2222C116.908 49.1078 117.658 50.0119 118.377 50.9173C126.475 61.1294 134.28 71.4811 142.167 81.7003C143.076 82.875 143.994 84.0555 144.895 85.1907C153.665 96.171 157.364 108.988 163.241 120.036C164.04 121.605 164.864 123.163 165.719 124.717C167.82 128.509 169.343 132.769 170.103 137.017C170.478 138.977 170.722 141.33 170.979 142.196C170.995 142.254 171.026 142.321 170.96 142.157C170.942 142.114 170.916 142.055 170.873 141.969C170.811 141.853 170.704 141.634 170.42 141.286C170.226 141.093 170.262 140.977 169.365 140.387C168.636 139.85 166.705 139.563 165.582 140.148C163.586 141.156 163.523 142.275 163.429 142.307C163.231 142.806 163.243 142.907 163.225 142.968C163.213 143.033 163.213 143.038 163.214 143.03C163.216 143.01 163.223 142.927 163.229 142.837C163.252 142.45 163.262 141.917 163.267 141.392C163.275 140.332 163.267 139.215 163.264 138.098C163.256 135.851 163.252 133.575 163.35 131.212C163.409 129.876 163.54 128.529 163.8 127.028C163.891 126.58 163.939 126.08 163.93 125.533C163.923 125.049 163.886 124.54 163.827 123.944C163.798 123.643 163.763 123.327 163.729 122.913C163.713 122.7 163.695 122.469 163.692 122.122C163.692 121.95 163.694 121.739 163.724 121.441C163.77 121.121 163.777 120.75 164.121 119.943C164.348 119.485 164.426 119.187 165.079 118.327C165.125 118.271 165.146 118.245 165.226 118.154C165.303 118.067 165.389 117.975 165.488 117.879C165.687 117.688 165.937 117.475 166.29 117.259C166.467 117.151 166.671 117.044 166.908 116.948C167.229 116.815 167.703 116.678 168.201 116.644C169.2 116.532 170.44 116.993 170.988 117.431C172.033 118.206 172.341 119.025 172.484 119.333C172.617 119.652 172.691 119.909 172.748 120.14C173.045 121.598 172.963 122.034 172.984 122.787C172.974 124.096 172.888 125.271 172.787 126.449C172.582 128.769 172.29 131.046 171.948 133.313C171.202 137.886 170.557 142.191 168.767 147.164C168.664 147.426 168.557 147.681 168.443 147.932C168.172 148.516 167.828 149.153 167.127 149.856C166.465 150.543 165.263 151.211 164.155 151.353C161.89 151.606 160.79 150.862 159.954 150.449C158.332 149.5 157.429 148.609 156.487 147.737C154.67 145.997 153.154 144.307 151.634 142.8C150.933 142.104 150.232 141.444 149.588 140.922L149.984 141.205C149.902 141.154 149.819 141.102 149.735 141.052C147.793 139.867 145.566 138.889 143.228 137.999L143.372 138.051C143.342 138.041 143.311 138.03 143.281 138.02C142.201 137.659 141.052 137.38 139.745 137.072C138.698 136.824 137.794 136.171 137.233 135.252C136.673 134.334 136.5 133.226 136.754 132.175C137.008 131.124 137.667 130.217 138.586 129.656C139.504 129.095 140.607 128.927 141.652 129.184C142.947 129.503 144.4 129.867 145.857 130.364C145.898 130.378 145.94 130.392 145.981 130.406L146.125 130.458C148.715 131.465 151.347 132.623 153.921 134.189C154.031 134.256 154.142 134.325 154.251 134.393L154.647 134.676C155.643 135.485 156.492 136.297 157.297 137.092C159.009 138.791 160.548 140.487 162.03 141.892C162.742 142.573 163.538 143.224 163.897 143.413C163.974 143.458 164.006 143.459 163.896 143.423C163.787 143.393 163.494 143.297 162.939 143.374C162.393 143.437 161.726 143.816 161.457 144.108C161.161 144.407 161.105 144.57 161.082 144.608C161.131 144.499 161.187 144.366 161.246 144.214C162.473 140.84 163.276 136.295 163.913 132.11C164.226 129.985 164.492 127.833 164.667 125.755C164.753 124.714 164.818 123.658 164.82 122.764C164.82 122.528 164.815 122.341 164.805 122.165C164.801 122.022 164.761 121.842 164.811 122.084C164.831 122.164 164.863 122.291 164.951 122.501C165.047 122.69 165.257 123.347 166.214 124.065C166.711 124.465 167.878 124.901 168.807 124.795C169.27 124.763 169.704 124.637 169.991 124.518C170.203 124.431 170.382 124.337 170.533 124.246C171.121 123.883 171.371 123.54 171.436 123.467C171.612 123.246 171.633 123.182 171.63 123.193C171.629 123.194 171.607 123.238 171.573 123.314C171.852 122.653 171.833 122.438 171.861 122.281C171.875 122.14 171.872 122.095 171.873 122.079C171.873 122.053 171.876 122.142 171.885 122.25C171.904 122.472 171.94 122.796 171.974 123.132C172.044 123.815 172.109 124.582 172.124 125.382C172.143 126.292 172.119 127.254 171.995 128.249C171.894 129.215 171.87 130.397 171.82 131.569C171.733 133.673 171.728 135.86 171.728 138.082C171.728 139.194 171.731 140.314 171.717 141.487C171.707 142.085 171.699 142.66 171.652 143.393C171.639 143.577 171.624 143.78 171.594 144.033C171.58 144.142 171.558 144.315 171.521 144.511C171.5 144.619 171.488 144.686 171.443 144.866C171.396 145.05 171.336 145.266 171.21 145.57C171.104 145.638 170.977 146.871 168.936 147.89C167.786 148.487 165.821 148.198 165.058 147.641C164.119 147.024 164.143 146.89 163.929 146.674C163.607 146.283 163.457 145.99 163.358 145.803C163.29 145.667 163.237 145.551 163.192 145.443C163.146 145.336 163.109 145.238 163.074 145.144C163.05 145.076 163.028 145.016 163.007 144.953C162.966 144.83 162.929 144.711 162.894 144.591C162.186 141.778 162.193 140.299 161.839 138.524C161.225 135.027 160.116 131.785 158.443 128.668C157.566 127.034 156.718 125.399 155.89 123.758C149.788 112.026 146.023 99.541 138.514 90.2376C137.578 89.0498 136.652 87.8494 135.736 86.6562C127.832 76.3315 120.141 65.9221 112.21 55.7947C111.558 54.9646 110.891 54.1513 110.2 53.3454C104.088 46.2516 96.6471 40.1459 88.7416 34.7359C88.0482 34.2626 87.3753 33.8026 86.6832 33.3292C74.8401 25.4762 63.215 16.0025 50.6209 12.6582C50.1897 12.56 49.7621 12.4635 49.3381 12.3687C39.1368 10.1151 28.8383 8.02841 18.6692 7.19252C13.7072 6.82787 8.62159 6.73805 4.4654 7.94707Z" fill="black"/>
</svg>
